<svg width="128" height="128" viewBox="0 0 128 128" xmlns="http://www.w3.org/2000/svg">
  <defs>
    <linearGradient id="grad1" x1="0%" y1="0%" x2="100%" y2="100%">
      <stop offset="0%" style="stop-color:#667eea;stop-opacity:1" />
      <stop offset="100%" style="stop-color:#764ba2;stop-opacity:1" />
    </linearGradient>
  </defs>
  
  <!-- 背景圆形 -->
  <circle cx="64" cy="64" r="60" fill="url(#grad1)" stroke="#fff" stroke-width="4"/>
  
  <!-- 星星图标 -->
  <g transform="translate(64, 64)">
    <!-- 主星星 -->
    <path d="M0,-25 L7,-7 L25,-7 L10,5 L15,23 L0,15 L-15,23 L-10,5 L-25,-7 L-7,-7 Z" 
          fill="#FFD700" stroke="#fff" stroke-width="2"/>
    
    <!-- 小星星装饰 -->
    <path d="M-20,-15 L-17,-10 L-12,-10 L-15,-5 L-13,0 L-18,-3 L-20,-8 Z" 
          fill="#FFD700" opacity="0.8"/>
    <path d="M20,-15 L23,-10 L28,-10 L25,-5 L27,0 L22,-3 L20,-8 Z" 
          fill="#FFD700" opacity="0.8"/>
    <path d="M-15,20 L-12,25 L-7,25 L-10,30 L-8,35 L-13,32 L-15,27 Z" 
          fill="#FFD700" opacity="0.8"/>
    <path d="M15,20 L18,25 L23,25 L20,30 L22,35 L17,32 L15,27 Z" 
          fill="#FFD700" opacity="0.8"/>
  </g>
  
  <!-- 文字 "P" -->
  <text x="64" y="80" font-family="Arial, sans-serif" font-size="24" font-weight="bold" 
        text-anchor="middle" fill="#fff">P</text>
</svg>
